{"title":"Waking the Dead S02","uid":15686220,"size":3481244510,"categoryP":"video","categoryS":"tv_shows","magnet":"?xt=urn:btih:6526fa398b9e89ef63f377c2ee3e9208c77fa2df&amp;dn=Waking+the+Dead+S02&amp;tr=udp%3A%2F%2Ftracker.leechers-paradise.org%3A6969&amp;tr=udp%3A%2F%2Fzer0day.ch%3A1337&amp;tr=udp%3A%2F%2Fopen.demonii.com%3A1337&amp;tr=udp%3A%2F%2Ftracker.coppersurfer.tk%3A6969&amp;tr=udp%3A%2F%2Fexodus.desync.com%3A6969","seeders":2,"leechers":1,"uploader":"RedBaron58","files":8,"time":1472351526,"description":"Waking the Dead S02 DVDrip x264 mp4\r\n  \nhttp://www.imdb.com/title/tt0259733/\r\n\r\nThank you for your kind comments and feedback on my other torrents, your feedback is welcome.\r\n\r\nAbout the Series:\r\nDetective Superintendent Peter Boyd is the leader of a police team which investigates \r\nunsolved murders using modern technology.\r\nStarring  Trevor Eve, Sue Johnston and Wil Johnson.  \r\n\r\nEpisode 1 &amp; 2 &quot;Life Sentence&quot;\r\nThe team are forced to enlist the help of a psychotic serial killer named Thomas Rice\r\n\r\nEpisode 3 &amp; 4 &quot;Deathwatch&quot;\r\nBoyd and the team take on the task of infiltrating the dark underworld of London's \r\ngangland crime families when small-time gangster Harry Newman makes a deathbed \r\nconfession to twelve &quot;unauthorised killings&quot;.\r\n\r\nEpisode 5 &amp; 6 &quot;Special Relationship&quot;\r\nWhen a petty criminal is acquitted of the murder of a prominent Home Office adviser \r\nand well known female activist, Boyd and his team struggle to find the identity \r\nof the real killer.\r\n\r\nEpisode 7 &amp; 8 &quot;Thin Air&quot;\r\nTwelve years after sixteen-year-old Joanna Gold famously disappeared in broad \r\ndaylight on Hampstead Heath, the dress she was wearing is found in a lock-up \r\ngarage owned by one of her old friends.\r\n\r\n\r\nTechnical: (All episodes are encoded to the same settings)\r\n\r\nGeneral\r\nComplete name                            : I:Waking the Dead S02Waking The Dead S02E01 - Life Sentence pt1 x264 RB58.mp4\r\nFormat                                   : MPEG-4\r\nFormat profile                           : Base Media / Version 2\r\nCodec ID                                 : mp42\r\nFile size                                : 426 MiB\r\nDuration                                 : 59mn 27s\r\nOverall bit rate mode                    : Variable\r\nOverall bit rate                         : 1 000 Kbps\r\nEncoded date                             : UTC 2016-08-19 22:15:19\r\nTagged date                              : UTC 2016-08-19 22:17:30\r\nWriting application                      : HandBrake 0.9.8 2012071700\r\n\r\nVideo\r\nID                                       : 1\r\nFormat                                   : AVC\r\nFormat/Info                              : Advanced Video Codec\r\nFormat profile                           :   \r\nFormat settings, CABAC                   : Yes\r\nFormat settings, ReFrames                : 4 frames\r\nCodec ID                                 : avc1\r\nCodec ID/Info                            : Advanced Video Coding\r\nDuration                                 : 59mn 27s\r\nBit rate                                 : 900 Kbps\r\nWidth                                    : 716 pixels\r\nHeight                                   : 574 pixels\r\nDisplay aspect ratio                     : 16:9\r\nFrame rate mode                          : Constant\r\nFrame rate                               : 25.000 fps\r\nColor space                              : YUV\r\nChroma subsampling                       : 4:2:0\r\nBit depth                                : 8 bits\r\nScan type                                : Progressive\r\nBits/(Pixel*Frame)                       : 0.088\r\nStream size                              : 383 MiB (90%)\r\nWriting library                          : x264 core 120\r\nEncoding settings                        : cabac=1 / ref=1 / deblock=1:0:0\r\nEncoded date                             : UTC 2016-08-19 22:15:19\r\nTagged date                              : UTC 2016-08-19 22:17:30\r\nColor range                              : Limited\r\nColor primaries                          : BT.601 NTSC\r\nTransfer characteristics                 : BT.709\r\nMatrix coefficients                      : BT.601\r\n\r\nAudio\r\nID                                       : 2\r\nFormat                                   : AAC\r\nFormat/Info                              : Advanced Audio Codec\r\nFormat profile                           : LC\r\nCodec ID                                 : 40\r\nDuration                                 : 59mn 27s\r\nBit rate mode                            : Variable\r\nBit rate                                 : 96.0 Kbps\r\nMaximum bit rate                         : 180 Kbps\r\nChannel(s)                               : 2 channels\r\nChannel positions                        : Front: L R\r\nSampling rate                            : 48.0 KHz\r\nCompression mode                         : Lossy\r\nStream size                              : 40.8 MiB (10%)\r\nTitle                                    : Stereo\r\nLanguage                                 : English","torrent":{"xt":"urn:btih:6526fa398b9e89ef63f377c2ee3e9208c77fa2df","amp;dn":"Waking+the+Dead+S02","amp;tr":["udp%3A%2F%2Ftracker.leechers-paradise.org%3A6969","udp%3A%2F%2Fzer0day.ch%3A1337","udp%3A%2F%2Fopen.demonii.com%3A1337","udp%3A%2F%2Ftracker.coppersurfer.tk%3A6969","udp%3A%2F%2Fexodus.desync.com%3A6969"],"infoHash":"6526fa398b9e89ef63f377c2ee3e9208c77fa2df","infoHashBuffer":{"type":"Buffer","data":[101,38,250,57,139,158,137,239,99,243,119,194,238,62,146,8,199,127,162,223]},"announce":[],"urlList":[]}}